<svg width="85" height="85" viewBox="0 0 85 85" fill="none" xmlns="http://www.w3.org/2000/svg">
<path d="M19.6666 22C18.7826 22 17.9348 22.3512 17.3097 22.9763C17.0658 23.2203 16.8634 23.4981 16.7075 23.7989L43 41.3271L69.2925 23.7989C69.1366 23.4981 68.9342 23.2203 68.6903 22.9763C68.0652 22.3512 67.2174 22 66.3334 22H19.6666Z" fill="white"/>
<path d="M69.6666 31.5617L44.849 48.1068C43.7294 48.8533 42.2706 48.8533 41.151 48.1068L16.3334 31.5617V58.6667C16.3334 59.5507 16.6846 60.3986 17.3097 61.0237C17.9348 61.6488 18.7826 62 19.6666 62H66.3334C67.2174 62 68.0652 61.6488 68.6903 61.0237C69.3154 60.3986 69.6666 59.5507 69.6666 58.6667V31.5617Z" fill="white"/>
<path fill-rule="evenodd" clip-rule="evenodd" d="M0 12C0 5.37259 5.37256 0 12 0H73C79.6274 0 85 5.37259 85 12V73C85 79.6274 79.6274 85 73 85H12C5.37256 85 0 79.6274 0 73V12ZM76.3333 25.275C76.3179 22.6439 75.266 20.1239 73.4044 18.2623C71.5291 16.3869 68.9855 15.3333 66.3334 15.3333H19.6666C17.0145 15.3333 14.4709 16.3869 12.5956 18.2623C10.7347 20.1231 9.68298 22.6419 9.66687 25.2719C9.66626 25.3069 9.66614 25.3416 9.66663 25.3766V58.6667C9.66663 61.3188 10.7202 63.8624 12.5956 65.7377C14.4709 67.6131 17.0145 68.6667 19.6666 68.6667H66.3334C68.9855 68.6667 71.5291 67.6131 73.4044 65.7377C75.2798 63.8624 76.3334 61.3188 76.3334 58.6667V25.3744C76.3339 25.3411 76.3339 25.3083 76.3333 25.275Z" fill="white"/>
</svg>
