<svg width="88" height="88" viewBox="0 0 88 88" fill="none" xmlns="http://www.w3.org/2000/svg">
<path d="M78.375 0.25H9.625C7.1386 0.25 4.75403 1.23772 2.99587 2.99587C1.23772 4.75403 0.25 7.1386 0.25 9.625L0.25 78.375C0.25 80.8614 1.23772 83.246 2.99587 85.0041C4.75403 86.7623 7.1386 87.75 9.625 87.75H36.4316V58.002H24.127V44H36.4316V33.3281C36.4316 21.1895 43.6582 14.4844 54.7266 14.4844C60.0273 14.4844 65.5703 15.4297 65.5703 15.4297V27.3438H59.4629C53.4453 27.3438 51.5684 31.0781 51.5684 34.9082V44H65.002L62.8535 58.002H51.5684V87.75H78.375C80.8614 87.75 83.246 86.7623 85.0041 85.0041C86.7623 83.246 87.75 80.8614 87.75 78.375V9.625C87.75 7.1386 86.7623 4.75403 85.0041 2.99587C83.246 1.23772 80.8614 0.25 78.375 0.25Z" fill="white"/>
</svg>
