<svg width="88" height="88" viewBox="0 0 88 88" fill="none" xmlns="http://www.w3.org/2000/svg">
<path d="M44.0195 21.5391C31.5977 21.5391 21.5781 31.5586 21.5781 43.9805C21.5781 56.4023 31.5977 66.4219 44.0195 66.4219C56.4414 66.4219 66.4609 56.4023 66.4609 43.9805C66.4609 31.5586 56.4414 21.5391 44.0195 21.5391ZM44.0195 58.5703C35.9922 58.5703 29.4297 52.0273 29.4297 43.9805C29.4297 35.9336 35.9727 29.3906 44.0195 29.3906C52.0664 29.3906 58.6094 35.9336 58.6094 43.9805C58.6094 52.0273 52.0469 58.5703 44.0195 58.5703ZM72.6133 20.6211C72.6133 23.5312 70.2695 25.8555 67.3789 25.8555C64.4688 25.8555 62.1445 23.5117 62.1445 20.6211C62.1445 17.7305 64.4883 15.3867 67.3789 15.3867C70.2695 15.3867 72.6133 17.7305 72.6133 20.6211ZM87.4766 25.9336C87.1445 18.9219 85.543 12.7109 80.4063 7.59375C75.2891 2.47656 69.0781 0.875 62.0664 0.523437C54.8398 0.113281 33.1797 0.113281 25.9531 0.523437C18.9609 0.855469 12.75 2.45703 7.61328 7.57422C2.47656 12.6914 0.894531 18.9023 0.542969 25.9141C0.132813 33.1406 0.132813 54.8008 0.542969 62.0273C0.875 69.0391 2.47656 75.25 7.61328 80.3672C12.75 85.4844 18.9414 87.0859 25.9531 87.4375C33.1797 87.8477 54.8398 87.8477 62.0664 87.4375C69.0781 87.1055 75.2891 85.5039 80.4063 80.3672C85.5234 75.25 87.125 69.0391 87.4766 62.0273C87.8867 54.8008 87.8867 33.1602 87.4766 25.9336ZM78.1406 69.7812C76.6172 73.6094 73.668 76.5586 69.8203 78.1016C64.0586 80.3867 50.3867 79.8594 44.0195 79.8594C37.6523 79.8594 23.9609 80.3672 18.2187 78.1016C14.3906 76.5781 11.4414 73.6289 9.89844 69.7812C7.61328 64.0195 8.14063 50.3477 8.14063 43.9805C8.14063 37.6133 7.63281 23.9219 9.89844 18.1797C11.4219 14.3516 14.3711 11.4023 18.2187 9.85937C23.9805 7.57422 37.6523 8.10156 44.0195 8.10156C50.3867 8.10156 64.0781 7.59375 69.8203 9.85937C73.6484 11.3828 76.5977 14.332 78.1406 18.1797C80.4258 23.9414 79.8984 37.6133 79.8984 43.9805C79.8984 50.3477 80.4258 64.0391 78.1406 69.7812Z" fill="white"/>
</svg>
