<svg width="88" height="88" viewBox="0 0 88 88" fill="none" xmlns="http://www.w3.org/2000/svg">
<path d="M81.25 0H6.23047C2.79297 0 0 2.83203 0 6.30859V81.1914C0 84.668 2.79297 87.5 6.23047 87.5H81.25C84.6875 87.5 87.5 84.668 87.5 81.1914V6.30859C87.5 2.83203 84.6875 0 81.25 0ZM26.4453 75H13.4766V33.2422H26.4648V75H26.4453ZM19.9609 27.5391C15.8008 27.5391 12.4414 24.1602 12.4414 20.0195C12.4414 15.8789 15.8008 12.5 19.9609 12.5C24.1016 12.5 27.4805 15.8789 27.4805 20.0195C27.4805 24.1797 24.1211 27.5391 19.9609 27.5391ZM75.0586 75H62.0898V54.6875C62.0898 49.8438 61.9922 43.6133 55.3516 43.6133C48.5937 43.6133 47.5586 48.8867 47.5586 54.3359V75H34.5898V33.2422H47.0313V38.9453H47.207C48.9453 35.6641 53.1836 32.207 59.4922 32.207C72.6172 32.207 75.0586 40.8594 75.0586 52.1094V75Z" fill="white"/>
</svg>
