<svg width="85" height="85" viewBox="0 0 85 85" fill="none" xmlns="http://www.w3.org/2000/svg">
<path fill-rule="evenodd" clip-rule="evenodd" d="M12 0C5.37256 0 0 5.37259 0 12V73C0 79.6274 5.37256 85 12 85H73C79.6274 85 85 79.6274 85 73V12C85 5.37259 79.6274 0 73 0H12ZM54.9279 31.9515C59.3229 35.0975 64.5952 36.7831 70.0001 36.7702V26.0427C67.0751 26.0433 64.2145 25.1835 61.7747 23.5702C60.0597 22.465 58.5883 21.0216 57.4502 19.3282C56.3123 17.6349 55.5316 15.7272 55.1562 13.7217C54.9968 12.8234 54.9204 11.9124 54.9279 11H44.1243V53.8926C44.1244 55.8235 43.5143 57.7051 42.3812 59.2686C41.248 60.8322 39.6499 61.9976 37.8149 62.5987C35.9799 63.1997 34.002 63.2056 32.1635 62.6154C30.3248 62.0252 28.7198 60.8692 27.5775 59.3124C26.4352 57.7556 25.814 55.8777 25.8026 53.9468C25.7913 52.0159 26.3903 50.1308 27.5142 48.5607C28.6381 46.9905 30.2294 45.8157 32.0608 45.2039C33.8923 44.5921 35.8702 44.5746 37.7122 45.154V34.1184C33.6869 33.5604 29.5873 34.2446 25.9614 36.0795C22.3354 37.9144 19.3562 40.8124 17.4219 44.3863C15.4875 47.9601 14.6903 52.0393 15.137 56.0784C15.5835 60.1176 17.2526 63.924 19.921 66.989C22.5894 70.0538 26.1298 72.2311 30.069 73.2296C34.0082 74.228 38.1582 74 41.9644 72.5761C45.7704 71.1522 49.0511 68.6003 51.3677 65.2615C53.6843 61.9228 54.9264 57.9564 54.9279 53.8926V31.9515Z" fill="white"/>
</svg>
