<svg width="91" height="91" viewBox="0 0 91 91" fill="none" xmlns="http://www.w3.org/2000/svg">
<path d="M30.3771 52.4417H18.6258C17.4281 47.8914 17.4281 43.1086 18.6258 38.5583H30.3771C30.0714 40.86 29.9058 43.1782 29.8813 45.5C29.9058 47.8218 30.0714 50.14 30.3771 52.4417ZM21.5017 31.6167H31.6167C32.7734 27.3337 34.4031 23.1928 36.4758 19.2704C30.1507 21.4308 24.8281 25.8193 21.5017 31.6167ZM69.4983 31.6167C66.1458 25.8219 60.8092 21.4364 54.4746 19.2704C56.5758 23.174 58.191 27.3203 59.2842 31.6167M45.5 73.1179C48.4464 68.9312 50.6905 64.2922 52.1442 59.3833H38.8558C40.3095 64.2922 42.5536 68.9312 45.5 73.1179ZM45.5 17.8325C42.5511 22.0357 40.307 26.6915 38.8558 31.6167H52.1442C50.6931 26.6915 48.4489 22.0357 45.5 17.8325ZM21.5017 59.3833C24.8489 65.163 30.1641 69.5454 36.4758 71.7296C34.4031 67.8072 32.7734 63.6663 31.6167 59.3833M90.125 10.7917V80.2083C90.125 82.8384 89.0802 85.3607 87.2205 87.2205C85.3607 89.0802 82.8384 90.125 80.2083 90.125H10.7917C8.1616 90.125 5.63926 89.0802 3.77952 87.2205C1.91979 85.3607 0.875 82.8384 0.875 80.2083V10.7917C0.875 8.1616 1.91979 5.63926 3.77952 3.77952C5.63926 1.91979 8.1616 0.875 10.7917 0.875H80.2083C82.8384 0.875 85.3607 1.91979 87.2205 3.77952C89.0802 5.63926 90.125 8.1616 90.125 10.7917ZM80.2083 45.5C80.2083 38.6353 78.1727 31.9248 74.3589 26.2171C70.5451 20.5093 65.1244 16.0607 58.7823 13.4337C52.4402 10.8067 45.4615 10.1193 38.7287 11.4586C31.996 12.7978 25.8115 16.1035 20.9575 20.9575C16.1035 25.8115 12.7978 31.996 11.4586 38.7287C10.1193 45.4615 10.8067 52.4402 13.4337 58.7823C16.0607 65.1244 20.5093 70.5451 26.2171 74.3589C31.9248 78.1727 38.6353 80.2083 45.5 80.2083C54.7052 80.2083 63.5334 76.5516 70.0425 70.0425C76.5516 63.5334 80.2083 54.7052 80.2083 45.5ZM61.1188 45.5C61.0942 47.8218 60.9286 50.14 60.6229 52.4417H72.3742C73.5719 47.8914 73.5719 43.1086 72.3742 38.5583H60.6229C60.9286 40.86 61.0942 43.1782 61.1188 45.5ZM54.4746 71.7296C60.8026 69.5517 66.1354 65.1693 69.4983 59.3833H59.2842C58.191 63.6797 56.5758 67.826 54.4746 71.7296ZM37.3683 38.5583C36.6282 43.1565 36.6282 47.8435 37.3683 52.4417H53.6317C53.9712 50.1429 54.1534 47.8236 54.1771 45.5C54.1548 43.1763 53.9726 40.857 53.6317 38.5583H37.3683Z" fill="white"/>
</svg>
